<?xml version="1.0" encoding="utf-8"?>
<!-- Generator: Adobe Illustrator 25.0.1, SVG Export Plug-In . SVG Version: 6.00 Build 0)  -->
<svg version="1.1" id="圖層_1" xmlns="http://www.w3.org/2000/svg" xmlns:xlink="http://www.w3.org/1999/xlink" x="0px" y="0px"
	 viewBox="0 0 1417 1417" style="enable-background:new 0 0 1417 1417;" xml:space="preserve">
<style type="text/css">
	.st0{fill:#C5C6C6;}
	.st1{opacity:0.35;fill:none;stroke:#FFFFFF;stroke-miterlimit:10;}
	.st2{fill:#F3BD00;}
	.st3{fill:#36775E;}
	.st4{fill:#EB8620;}
</style>
<g>
	<rect class="st0" width="1417" height="1417"/>
	<rect x="580.7" y="618.9" class="st1" width="699.3" height="699.3"/>
	<rect x="410.6" y="231.5" class="st1" width="699.3" height="699.3"/>
	<rect x="325.6" y="429.9" class="st1" width="699.3" height="699.3"/>
	<rect x="127.2" y="127.6" class="st1" width="699.3" height="699.3"/>
	<rect x="212.2" y="543.3" class="st1" width="699.3" height="699.3"/>
	<polygon class="st2" points="993.5,576.8 889.7,516.9 889.7,636.7 	"/>
	<polygon class="st3" points="889.7,636.7 993.5,696.7 993.5,576.8 	"/>
	<polygon class="st3" points="993.5,696.7 889.7,636.7 889.7,756.6 	"/>
	<polygon class="st2" points="993.5,936.3 889.7,876.4 889.7,996.2 	"/>
	<polygon class="st3" points="889.7,996.2 993.5,1056.1 993.5,936.3 	"/>
	<polygon class="st3" points="993.5,1056.1 889.7,996.2 889.7,1116.1 	"/>
	<polygon class="st2" points="786,576.8 889.7,636.7 889.7,516.9 	"/>
	<polygon class="st2" points="889.7,636.7 786,576.8 786,696.7 	"/>
	<polygon class="st3" points="786,696.7 889.7,756.6 889.7,636.7 	"/>
	<polygon class="st3" points="889.7,756.6 786,696.7 786,816.5 	"/>
	<polygon class="st2" points="889.7,876.4 786,816.5 786,936.3 	"/>
	<polygon class="st2" points="786,936.3 889.7,996.2 889.7,876.4 	"/>
	<polygon class="st4" points="889.7,996.2 786,936.3 786,1056.1 	"/>
	<polygon class="st4" points="786,1056.1 889.7,1116.1 889.7,996.2 	"/>
	<polygon class="st2" points="682.2,636.7 786,696.7 786,576.8 	"/>
	<polygon class="st2" points="786,696.7 682.2,636.7 682.2,756.6 	"/>
	<polygon class="st3" points="682.2,756.6 786,816.5 786,696.7 	"/>
	<polygon class="st2" points="786,816.5 682.2,756.6 682.2,876.4 	"/>
	<polygon class="st2" points="682.2,876.4 786,936.3 786,816.5 	"/>
	<polygon class="st4" points="786,936.3 682.2,876.4 682.2,996.2 	"/>
	<polygon class="st4" points="682.2,996.2 786,1056.1 786,936.3 	"/>
	<polygon class="st2" points="682.2,277.3 578.4,217.3 578.4,337.2 	"/>
	<polygon class="st3" points="578.4,337.2 682.2,397.1 682.2,277.3 	"/>
	<polygon class="st3" points="682.2,397.1 578.4,337.2 578.4,457 	"/>
	<polygon class="st3" points="578.4,457 682.2,516.9 682.2,397.1 	"/>
	<polygon class="st3" points="682.2,516.9 578.4,457 578.4,576.8 	"/>
	<polygon class="st3" points="578.4,576.8 682.2,636.7 682.2,516.9 	"/>
	<polygon class="st3" points="682.2,636.7 578.4,576.8 578.4,696.7 	"/>
	<polygon class="st2" points="578.4,696.7 682.2,756.6 682.2,636.7 	"/>
	<polygon class="st2" points="682.2,756.6 578.4,696.7 578.4,816.5 	"/>
	<polygon class="st2" points="578.4,816.5 682.2,876.4 682.2,756.6 	"/>
	<polygon class="st4" points="682.2,876.4 578.4,816.5 578.4,936.3 	"/>
	<polygon class="st4" points="578.4,936.3 682.2,996.2 682.2,876.4 	"/>
	<polygon class="st3" points="682.2,996.2 578.4,936.3 578.4,1056.1 	"/>
	<polygon class="st3" points="578.4,1056.1 682.2,1116.1 682.2,996.2 	"/>
	<polygon class="st3" points="682.2,1116.1 578.4,1056.1 578.4,1176 	"/>
	<polygon class="st2" points="474.6,277.3 578.4,337.2 578.4,217.3 	"/>
	<polygon class="st4" points="578.4,337.2 474.6,277.3 474.6,397.1 	"/>
	<polygon class="st4" points="474.6,397.1 578.4,457 578.4,337.2 	"/>
	<polygon class="st4" points="578.4,457 474.6,397.1 474.6,516.9 	"/>
	<polygon class="st4" points="474.6,516.9 578.4,576.8 578.4,457 	"/>
	<polygon class="st4" points="578.4,576.8 474.6,516.9 474.6,636.7 	"/>
	<polygon class="st4" points="474.6,636.7 578.4,696.7 578.4,576.8 	"/>
	<polygon class="st4" points="578.4,696.7 474.6,636.7 474.6,756.6 	"/>
	<polygon class="st2" points="474.6,756.6 578.4,816.5 578.4,696.7 	"/>
	<polygon class="st4" points="578.4,816.5 474.6,756.6 474.6,876.4 	"/>
	<polygon class="st4" points="474.6,876.4 578.4,936.3 578.4,816.5 	"/>
	<polygon class="st4" points="578.4,936.3 474.6,876.4 474.6,996.2 	"/>
	<polygon class="st4" points="474.6,996.2 578.4,1056.1 578.4,936.3 	"/>
	<polygon class="st4" points="578.4,1056.1 474.6,996.2 474.6,1116.1 	"/>
	<polygon class="st4" points="474.6,1116.1 578.4,1176 578.4,1056.1 	"/>
</g>
</svg>
